<svg width="132" height="132" viewBox="0 0 132 132" fill="none" xmlns="http://www.w3.org/2000/svg">
<rect width="132" height="132" rx="66" fill="#5156D2"/>
<path d="M24.9766 53.8828L36.0859 53.625C36.4922 53.625 36.7969 53.75 37 54C37.2031 54.2344 37.3047 54.5312 37.3047 54.8906C37.3047 55.2344 37.2188 55.7969 37.0469 56.5781C41.2188 54.2812 44.8516 53.1328 47.9453 53.1328C49.2891 53.1328 50.5312 53.4688 51.6719 54.1406C52.8281 54.8125 53.5781 55.8047 53.9219 57.1172C59.0156 54.4609 63.2344 53.1328 66.5781 53.1328C68.0469 53.1328 69.3438 53.5469 70.4688 54.375C71.6719 55.2812 72.2734 56.5625 72.2734 58.2188C72.2734 59.8594 71.9844 61.5938 71.4062 63.4219C70.8438 65.2344 70.2734 66.9297 69.6953 68.5078C69.1328 70.0859 68.8516 71.2031 68.8516 71.8594C68.8516 72.5 69.0156 72.9844 69.3438 73.3125C69.6719 73.6406 70.1094 73.8047 70.6562 73.8047C72.6719 73.8047 75.1719 73.1016 78.1562 71.6953C78.7188 71.4453 79.1484 71.3203 79.4453 71.3203C80.1484 71.3203 80.5 71.6016 80.5 72.1641C80.5 72.6641 80.1953 73.1406 79.5859 73.5938C78.9922 74.0312 78.125 74.5156 76.9844 75.0469C75.8438 75.5781 74.4297 76.1484 72.7422 76.7578C71.0703 77.3672 69.1016 77.8828 66.8359 78.3047C64.5703 78.7266 62.5469 78.9375 60.7656 78.9375C59 78.9375 57.6797 78.6406 56.8047 78.0469C55.9297 77.4531 55.4922 76.6875 55.4922 75.75C55.4922 74.8125 55.7891 73.4062 56.3828 71.5312C56.9922 69.6562 57.6016 67.8047 58.2109 65.9766C58.8203 64.1328 59.125 62.7969 59.125 61.9688C59.125 61.125 58.9219 60.5234 58.5156 60.1641C58.1094 59.7891 57.5 59.6016 56.6875 59.6016C55.8906 59.6016 55.0078 59.7266 54.0391 59.9766C53.7891 62.6484 52.75 66.7188 50.9219 72.1875C50.1562 74.4844 49.7266 75.9219 49.6328 76.5C49.5391 77.0781 49.4766 77.4141 49.4453 77.5078C49.4141 77.5859 49.3594 77.6953 49.2812 77.8359C49.1406 78.0859 48.8438 78.2109 48.3906 78.2109C46.1406 78.2109 43.9141 78.25 41.7109 78.3281C39.5234 78.4219 38.1094 78.4688 37.4688 78.4688C36.8438 78.4688 36.5312 78.1016 36.5312 77.3672C36.5312 76.6328 36.7734 75.5391 37.2578 74.0859C37.7422 72.6328 38.2812 71.1875 38.875 69.75C40.4219 65.9375 41.1953 63.0938 41.1953 61.2188C41.1953 59.8281 40.2891 59.1328 38.4766 59.1328C37.7109 59.1328 36.9844 59.2578 36.2969 59.5078C35.6875 61.5859 34.6328 64.875 33.1328 69.375C31.6484 73.875 30.8125 76.4062 30.625 76.9688C30.375 77.7969 29.9297 78.2109 29.2891 78.2109L17.2422 78.4688C17.0703 78.4688 16.875 78.3594 16.6562 78.1406C16.4531 77.9375 16.3516 77.6953 16.3516 77.4141C16.3516 77.1172 16.6797 76.0938 17.3359 74.3438C18.0078 72.5781 18.7422 70.6875 19.5391 68.6719C20.3359 66.6406 21.0625 64.4141 21.7188 61.9922C22.3906 59.5547 22.7266 57.5391 22.7266 55.9453L22.7031 55.0547C22.7031 54.2734 23.4609 53.8828 24.9766 53.8828ZM100.914 55.8281C102.148 54.125 103.047 53.2734 103.609 53.2734C104.188 53.2734 105.445 53.4297 107.383 53.7422C109.336 54.0391 111.297 54.4922 113.266 55.1016C115.25 55.6953 116.242 56.3047 116.242 56.9297C116.242 57.6953 115.641 58.7031 114.438 59.9531C111.828 62.7188 106.672 66.8594 98.9688 72.375C97.9219 73.125 97.1875 73.6562 96.7656 73.9688C99.3906 74.1562 101.922 74.25 104.359 74.25C109.391 74.25 113.688 73.5078 117.25 72.0234C118.391 71.5547 119.164 71.3203 119.57 71.3203C120.164 71.3203 120.461 71.5781 120.461 72.0938C120.461 72.8281 118.906 74.0156 115.797 75.6562C114.438 76.375 112.742 77.0625 110.711 77.7188C108.68 78.375 106.852 78.7031 105.227 78.7031C103.617 78.7031 102.062 78.5938 100.562 78.375C99.0781 78.1562 97.9062 77.9219 97.0469 77.6719C96.1875 77.4219 95.4219 77.1875 94.75 76.9688C94.0781 76.75 93.6875 76.6406 93.5781 76.6406C93.4688 76.6406 93.1875 76.8203 92.7344 77.1797C91.375 78.2578 90.3203 78.7969 89.5703 78.7969C88.8359 78.7969 87.1797 78.5391 84.6016 78.0234C82.0234 77.5234 79.8516 77.0547 78.0859 76.6172C76.3203 76.1797 75.4375 75.3828 75.4375 74.2266C75.4375 73.7422 75.6562 73.2891 76.0938 72.8672C76.5312 72.4297 77.3281 71.875 78.4844 71.2031C79.6562 70.5156 80.9844 69.7578 82.4688 68.9297C86.5781 66.6641 91.4609 63.4922 97.1172 59.4141C96.3516 59.3672 95.3984 59.3438 94.2578 59.3438C93.1328 59.3438 91.8828 59.5078 90.5078 59.8359C89.1328 60.1641 87.9609 60.5703 86.9922 61.0547C86.0234 61.5234 85.1484 62 84.3672 62.4844C82.5078 63.6094 81.4062 64.1719 81.0625 64.1719C80.7344 64.1719 80.4609 64.0469 80.2422 63.7969C80.0391 63.5469 79.9375 63.1875 79.9375 62.7188C79.9375 62.25 80.4531 60.8359 81.4844 58.4766C82.5312 56.1016 83.3125 54.6719 83.8281 54.1875C84.3594 53.6875 84.875 53.3906 85.375 53.2969C85.8906 53.1875 86.625 53.1328 87.5781 53.1328C88.5469 53.1328 90.8359 53.7266 94.4453 54.9141C98.0703 56.0859 99.9531 56.6719 100.094 56.6719C100.234 56.6719 100.508 56.3906 100.914 55.8281Z" fill="white"/>
</svg>
